# xmcd
#
# Track frame offsets: 
#        150
#        22302
#        38975
#        63105
#        87882
#        106845
#        128287
#        149612
#        173015
#        192172
#
# Disc length: 2735 seconds
#
# Revision: 3
# Processed by: cddbd v1.5.2PL0 Copyright (c) Steve Scherf et al.
# Submitted via: ExactAudioCopy v0.95a4
#
DISCID=7f0aad0a
DTITLE=Rita Chiarelli - Just Gettin' Started
DYEAR=1995
DGENRE=Blues
TTITLE0=Just Gettin' Started
TTITLE1=Shallow Water
TTITLE2=Hurtin' Chain
TTITLE3=Tupelo
TTITLE4=Heartbreak Of The Week
TTITLE5=Satisfied
TTITLE6=Blue Rain
TTITLE7=72ND Street
TTITLE8=Lawless
TTITLE9=Love Me
EXTD=Year: 1995\n\n\n\n\n\n                                           
EXTD=      www.ritachiarelli.com
EXTT0=
EXTT1=
EXTT2=
EXTT3=
EXTT4=
EXTT5=
EXTT6=
EXTT7=
EXTT8=
EXTT9=
PLAYORDER=
